<svg data-name="Layer 1" xmlns="http://www.w3.org/2000/svg" viewBox="0 0 48 48"><path fill="#00ccbc" d="M0 0h48v48H0z"/><path d="M30.83 7l-1.57 15-2.69-12.65-8.47 1.78 2.66 12.64-12.2 2.58 2.17 10.08L32.2 41l4.91-11 2.33-22.1zM24 28.75a1.53 1.53 0 0 1-1.65.16c-.62-.21-.88-.93-.68-1.86.18-.67 1-.78 1.42-.78a1 1 0 0 1 .47.11c.28.13.77.41.88.82a1.5 1.5 0 0 1-.44 1.55zm6.23.68c-.34.56-1.17.64-2 .23a1.23 1.23 0 0 1-.49-1.4 1.2 1.2 0 0 1 .28-.64A1.38 1.38 0 0 1 29 27a1.49 1.49 0 0 1 1.32 2.41z" fill="#fff"/></svg>