<svg xmlns="http://www.w3.org/2000/svg" xmlns:xlink="http://www.w3.org/1999/xlink" viewBox="0 0 32 32"><defs><path id="a" d="M0 0h29.058v32H0z"/></defs><g fill="none" fill-rule="evenodd" transform="translate(1)"><mask id="b" fill="#fff"><use xlink:href="#a"/></mask><path fill="#00CCBC" d="M20.43 21.1c-.32.54-1.1.61-1.9.23-.54-.27-.54-.9-.46-1.32.02-.22.12-.44.26-.6.2-.25.52-.57.86-.57a1.5 1.5 0 0 1 1.38.73c.3.5.15 1.03-.14 1.54zm-5.87-.63c-.4.4-.94.34-1.55.15-.58-.2-.83-.88-.63-1.75.17-.63.92-.73 1.33-.73.15 0 .3.02.44.1.27.12.73.39.83.77.14.59 0 1.08-.42 1.46zM20.96 0l-1.48 14.1-2.53-11.89L8.97 3.9l2.5 11.9L0 18.2l2.04 9.49 20.2 4.3 4.63-10.33L29.06.85 20.96 0z" mask="url(#b)"/></g></svg>