<svg id="Layer_1" data-name="Layer 1" xmlns="http://www.w3.org/2000/svg" viewBox="0 0 48 48"><defs><style>.cls-1{fill:#00ccbc;}.cls-2{fill:#fff;}</style></defs><title>deliveroo</title><rect class="cls-1" width="48" height="48"/><path class="cls-2" d="M30.83,7,29.26,22,26.57,9.35,18.1,11.13l2.66,12.64L8.56,26.35l2.17,10.08L32.2,41l4.91-11L39.44,7.9ZM24,28.75a1.53,1.53,0,0,1-1.65.16c-.62-.21-.88-.93-.68-1.86.18-.67,1-.78,1.42-.78a1,1,0,0,1,.47.11c.28.13.77.41.88.82A1.5,1.5,0,0,1,24,28.75Zm6.23.68c-.34.56-1.17.64-2,.23a1.23,1.23,0,0,1-.49-1.4,1.2,1.2,0,0,1,.28-.64A1.38,1.38,0,0,1,29,27a1.49,1.49,0,0,1,1.32,2.41Z"/></svg>